<?xml version="1.0" encoding="utf-8"?>
<!-- Generator: Adobe Illustrator 19.2.0, SVG Export Plug-In . SVG Version: 6.00 Build 0)  -->
<svg version="1.1" id="Layer_1" xmlns="http://www.w3.org/2000/svg" xmlns:xlink="http://www.w3.org/1999/xlink" x="0px" y="0px"
	 viewBox="0 0 157 143.4" style="enable-background:new 0 0 157 143.4;" xml:space="preserve">
<style type="text/css">
	.st0{font-family:'Idlewild-Bold';}
	.st1{font-size:22.3758px;}
	.st2{letter-spacing:16;}
	.st3{letter-spacing:17;}
	.st4{letter-spacing:11;}
	.st5{font-family:'Idlewild-Medium';}
	.st6{font-size:8.3909px;}
	.st7{letter-spacing:13;}
</style>
<g>
	<text transform="matrix(1 0 0 1 2.4053 122.6045)"><tspan x="0" y="0" class="st0 st1 st2">P</tspan><tspan x="42.2" y="0" class="st0 st1 st3">U</tspan><tspan x="87.6" y="0" class="st0 st1 st4">S</tspan><tspan x="124.5" y="0" class="st0 st1 st2">H</tspan></text>
	<g>
		<path d="M113.9,20.7c-1.4-3.4-3.5-6.4-6.2-8.9c-2.7-2.5-5.9-4.4-9.8-5.7c-3.8-1.4-8.2-2-13.1-2l-33.2,0l-14,0
			c-0.5,0-0.7,0.5-0.4,0.9l16.9,23.5c0.1,0.2,0.3,0.2,0.5,0.2H75c0.2,0,0.3-0.2,0.2-0.3l-1.5-2.2c-3.8-5.1-6.9-5.2-9.4-5.7
			c-0.2,0-0.2-0.3,0-0.3h19.2c4.5,0,8,1.1,10.6,3.2c2.6,2.1,3.9,5.1,3.9,9.2v0.2c0,3.5-1.2,6.4-3.7,8.8c-1.3,1.2-2.8,2.1-4.5,2.7
			c0,0,0,0,0,0C88,44.9,85.4,45,83,45c-2.3,0-28.1,0-31,0c-0.2,0-0.3,0.1-0.3,0.3l0,39.5c0,0.3,0.2,0.6,0.6,0.6h16.8
			c0.3,0,0.6-0.2,0.6-0.6l0-23.9c0,0,10,0,16.2,0c10.5,0,17.7-4.7,20.7-7.1c3-2.4,5.3-5.4,7-8.9c1.7-3.6,2.6-7.7,2.6-12.4v-0.2
			C116,28,115.3,24.2,113.9,20.7z"/>
		<path d="M99.3,64.6c-3.3,1.4-8.1,2.3-18.6,2.3c-0.2,0-0.3,0.2-0.2,0.4l12,17.8c0.1,0.2,0.3,0.2,0.5,0.2h19.6
			c0.4,0,0.7-0.5,0.5-0.9L99.6,64.7C99.6,64.6,99.5,64.6,99.3,64.6z"/>
	</g>
	<text transform="matrix(1 0 0 1 4.545 138.1983)"><tspan x="0" y="0" class="st5 st6 st7">REF</tspan><tspan x="68.6" y="0" class="st5 st6 st7">R</tspan><tspan x="92.4" y="0" class="st5 st6 st7">ESH</tspan></text>
</g>
</svg>
