<?xml version="1.0" encoding="utf-8"?>
<!-- Generator: Adobe Illustrator 19.1.0, SVG Export Plug-In . SVG Version: 6.00 Build 0)  -->
<svg version="1.1" id="Layer_1" xmlns="http://www.w3.org/2000/svg" xmlns:xlink="http://www.w3.org/1999/xlink" x="0px" y="0px"
	 viewBox="0 0 106.9 39.3" style="enable-background:new 0 0 106.9 39.3;" xml:space="preserve">
<style type="text/css">
	.st0{fill:#AA9483;}
</style>
<g>
	<path class="st0" d="M31.9,10.1c-0.6-1.3-1.4-2.5-2.4-3.5c-1-1-2.3-1.7-3.8-2.2c-1.5-0.5-3.2-0.8-5.1-0.8l-13,0l-5.4,0
		C2,3.6,1.9,3.8,2,3.9l6.6,9.2c0,0.1,0.1,0.1,0.2,0.1h7.9c0.1,0,0.1-0.1,0.1-0.1l-0.6-0.9c-1.5-2-2.7-2-3.7-2.2
		c-0.1,0-0.1-0.1,0-0.1H20c1.8,0,3.1,0.4,4.1,1.2c1,0.8,1.5,2,1.5,3.6v0.1c0,1.4-0.5,2.5-1.4,3.4c-0.5,0.5-1.1,0.8-1.8,1
		c0,0,0,0,0,0c-0.7,0.3-1.7,0.3-2.6,0.3c-0.9,0-11,0-12.1,0c-0.1,0-0.1,0-0.1,0.1l0,15.4c0,0.1,0.1,0.2,0.2,0.2h6.5
		c0.1,0,0.2-0.1,0.2-0.2l0-9.3c0,0,3.9,0,6.3,0c4.1,0,6.9-1.8,8.1-2.8c1.2-0.9,2.1-2.1,2.7-3.5c0.7-1.4,1-3,1-4.8v-0.1
		C32.7,12.9,32.4,11.4,31.9,10.1z"/>
	<path class="st0" d="M26.2,27.2c-1.3,0.6-3.2,0.9-7.3,0.9c-0.1,0-0.1,0.1-0.1,0.2l4.7,6.9c0,0.1,0.1,0.1,0.2,0.1h7.6
		c0.2,0,0.3-0.2,0.2-0.3l-5.2-7.7C26.3,27.2,26.3,27.2,26.2,27.2z"/>
</g>
<g>
	<g>
		<path class="st0" d="M48.1,14.9c0,0.7-0.2,1.3-0.6,1.6c-0.3,0.3-0.6,0.5-1.1,0.6c-0.5,0.1-1.2,0.2-2.1,0.2h-3.9v2.2h-2v-7h5.8
			c1,0,1.7,0.1,2.2,0.2c0.5,0.1,0.8,0.3,1.1,0.6C47.9,13.6,48.1,14.2,48.1,14.9z M45.9,14.4c-0.1-0.1-0.3-0.2-0.5-0.2
			c-0.2,0-0.6,0-1.2,0h-3.8v1.7h3.8c0.9,0,1.5-0.1,1.7-0.3c0.1-0.1,0.2-0.3,0.2-0.6C46.1,14.7,46,14.5,45.9,14.4z"/>
		<path class="st0" d="M62.3,19.7c-2.2,0-3.6-0.4-4.4-1.2c-0.5-0.5-0.8-1.2-0.8-2.1v-4h2v3.6c0,0.6,0.2,1,0.5,1.3
			c0.4,0.5,1.4,0.7,2.8,0.7c1.4,0,2.3-0.2,2.8-0.7c0.3-0.3,0.5-0.8,0.5-1.3v-3.6h2v4c0,0.9-0.3,1.5-0.8,2.1
			C65.9,19.3,64.4,19.7,62.3,19.7z"/>
		<path class="st0" d="M77.4,14.7c0-0.6,0.2-1.1,0.5-1.4c0.3-0.3,0.8-0.5,1.4-0.7c0.6-0.1,1.5-0.2,2.7-0.2c0.9,0,1.7,0.1,2.5,0.2
			c0.8,0.1,1.5,0.3,1.9,0.5v1.6c-0.5-0.2-1.2-0.4-2-0.6c-0.8-0.1-1.6-0.2-2.4-0.2c-1.5,0-2.4,0.1-2.6,0.3c-0.1,0.1-0.1,0.2-0.1,0.3
			c0,0.1,0,0.2,0.1,0.3c0.1,0.1,0.4,0.2,0.8,0.2c0.4,0,1.1,0.1,2,0.1c1.3,0,2.3,0.1,3,0.2c0.7,0.1,1.1,0.3,1.4,0.6
			c0.3,0.3,0.4,0.7,0.4,1.3c0,0.6-0.2,1.1-0.5,1.4c-0.6,0.6-2.1,0.9-4.4,0.9c-1,0-1.9-0.1-2.8-0.2c-0.9-0.1-1.6-0.3-2.2-0.5v-1.6
			c0.5,0.2,1.3,0.4,2.3,0.6c1,0.2,1.9,0.3,2.7,0.3c0.8,0,1.5,0,2-0.1s0.8-0.1,0.9-0.3c0.1-0.1,0.1-0.2,0.1-0.3c0-0.1,0-0.2-0.1-0.3
			c-0.1-0.1-0.1-0.1-0.3-0.1c-0.1,0-0.4-0.1-0.8-0.1c-0.4,0-1-0.1-1.8-0.1c-1.3,0-2.3-0.1-2.9-0.3c-0.7-0.1-1.2-0.4-1.5-0.6
			C77.5,15.6,77.4,15.2,77.4,14.7z"/>
		<path class="st0" d="M95.9,15.2h6.4v-2.7h2v7h-2v-2.7h-6.4v2.7h-2v-7h2V15.2z"/>
	</g>
	<g>
		<path class="st0" d="M38.7,23.8h2.2c0.3,0,0.6,0,0.8,0.1c0.2,0,0.3,0.1,0.4,0.2c0.1,0.1,0.2,0.3,0.2,0.6c0,0.2-0.1,0.4-0.2,0.6
			c-0.2,0.2-0.5,0.3-0.9,0.3l1.4,0.9v0h-0.9l-1.4-0.9h-1v0.9h-0.6V23.8z M39.3,24.3v0.8h1.6c0.4,0,0.6,0,0.7-0.1
			c0.1-0.1,0.1-0.2,0.1-0.3c0-0.1,0-0.2-0.1-0.3c0,0-0.1-0.1-0.2-0.1c-0.1,0-0.2,0-0.4,0H39.3z"/>
		<path class="st0" d="M49.6,24.9h2.8v0.5h-2.8V26h2.8v0.5h-3.4v-2.6h3.4v0.5h-2.8V24.9z"/>
		<path class="st0" d="M59.8,24.9h2.7v0.5h-2.7v1h-0.6v-2.6h3.3v0.5h-2.7V24.9z"/>
		<path class="st0" d="M69.3,23.8h2.2c0.3,0,0.6,0,0.8,0.1c0.2,0,0.3,0.1,0.4,0.2c0.1,0.1,0.2,0.3,0.2,0.6c0,0.2-0.1,0.4-0.2,0.6
			c-0.2,0.2-0.5,0.3-0.9,0.3l1.4,0.9v0h-0.9l-1.4-0.9h-1v0.9h-0.6V23.8z M69.9,24.3v0.8h1.6c0.4,0,0.6,0,0.7-0.1
			c0.1-0.1,0.1-0.2,0.1-0.3c0-0.1,0-0.2-0.1-0.3c0,0-0.1-0.1-0.2-0.1c-0.1,0-0.2,0-0.4,0H69.9z"/>
		<path class="st0" d="M80.5,24.9h2.8v0.5h-2.8V26h2.8v0.5h-3.4v-2.6h3.4v0.5h-2.8V24.9z"/>
		<path class="st0" d="M91.8,26c0.3,0,0.6,0,0.8,0c0.2,0,0.3-0.1,0.3-0.1c0,0,0.1-0.1,0.1-0.2c0-0.1,0-0.1-0.1-0.2
			c0,0-0.1-0.1-0.3-0.1c-0.1,0-0.4,0-0.9-0.1c-0.5,0-0.9-0.1-1.1-0.1c-0.2,0-0.4-0.1-0.5-0.2C90,24.9,90,24.8,90,24.6
			c0-0.2,0.1-0.4,0.2-0.5c0.1-0.1,0.3-0.2,0.5-0.2c0.2-0.1,0.5-0.1,1-0.1c0.7,0,1.2,0.1,1.6,0.2v0.5c-0.2-0.1-0.5-0.2-0.8-0.2
			c-0.3-0.1-0.6-0.1-0.9-0.1c-0.6,0-0.9,0.1-1,0.2c0,0-0.1,0.1-0.1,0.2c0,0.1,0,0.1,0.1,0.2c0,0,0.1,0.1,0.3,0.1
			c0.1,0,0.4,0,0.8,0.1c0.5,0,0.9,0.1,1.1,0.1c0.2,0,0.4,0.1,0.5,0.2c0.1,0.1,0.2,0.3,0.2,0.5c0,0.2-0.1,0.4-0.2,0.5
			c-0.1,0.1-0.3,0.2-0.5,0.2c-0.2,0.1-0.6,0.1-1,0.1c-0.4,0-0.7,0-1-0.1c-0.3-0.1-0.6-0.1-0.8-0.2v-0.5c0.2,0.1,0.5,0.2,0.8,0.2
			C91.1,26,91.5,26,91.8,26z"/>
		<path class="st0" d="M100.8,24.9h2.6v-1.1h0.6v2.6h-0.6v-1.1h-2.6v1.1h-0.6v-2.6h0.6V24.9z"/>
	</g>
</g>
</svg>
