<?xml version="1.0" encoding="utf-8"?>
<!-- Generator: Adobe Illustrator 19.1.0, SVG Export Plug-In . SVG Version: 6.00 Build 0)  -->
<svg version="1.1" id="Layer_1" xmlns="http://www.w3.org/2000/svg" xmlns:xlink="http://www.w3.org/1999/xlink" x="0px" y="0px"
	 viewBox="0 0 80 80" enable-background="new 0 0 80 80" xml:space="preserve">
<g>
	<g>
		<g>
			<g>
				<path fill="#66A4D0" d="M59,42.2c-1.5,2.6-3.6,4.9-6,6.7l-1.2-1c-0.2-0.2-0.4-0.4-0.6-0.6c2.3-1.6,4.3-3.7,5.7-6.2L59,42.2z"/>
				<g>
					<path fill="#66A4D0" d="M56.6,41.8l-2.4-1.1c-0.1-0.1-0.1-0.2,0-0.2l5-1.9c0.2-0.1,0.3,0,0.4,0.2l1.9,5c0.1,0.2,0,0.2-0.2,0.2
						l-2.2-1L56.6,41.8z"/>
				</g>
			</g>
			<path fill="none" d="M33.4,39.7c7.1,1.8,8.2,3.7,12.1,6.1c2,1.2,3.4,1.9,4.3,2.3c0.6-0.3,1.2-0.7,1.8-1.1
				c-1.5-0.6-4.1-1.8-6.5-3.4C41.5,41.3,39.1,39.9,33.4,39.7z"/>
			<path fill="none" d="M22.6,38c2.2-0.7,5-1.5,9-1.5c4.5,0,8.8,1.1,12.4,3c1.7,0.9,2.5,1.5,9,6.4"/>
			<path fill="#66A4D0" d="M22,36.1c0.2,0.6,0.4,1.3,0.6,1.9c-0.2,0.1-0.5,0.1-0.7,0.2l-1.6,0.6c0,0.1,0.1,0.2,0.1,0.2
				c-0.4-0.9-0.7-1.9-0.9-2.9L22,36.1z"/>
			<path fill="#66A4D0" d="M60.8,23.1c-3.3-7.8-11-13.3-20.1-13.3c-7.3,0-13.7,3.5-17.7,9l1.9,1.4c3.5-4.8,9.2-8,15.7-8
				c7.7,0,14.4,4.5,17.5,10.9L60.8,23.1z"/>
			<path fill="#0067B1" d="M54.9,47.5C54.9,47.5,54.9,47.5,54.9,47.5l-1.3-0.9c-0.2-0.2-0.5-0.3-0.7-0.5c-6.5-5-7.3-5.5-9-6.4
				c-3.5-1.9-7.8-3-12.4-3c-4,0-6.8,0.8-9,1.5c-0.2,0.1-0.5,0.1-0.7,0.2l-1.6,0.6c0,0.1,0.1,0.2,0.1,0.2c3.1,8,11,13.7,20.3,13.7
				c4.8,0,9.2-1.5,12.8-4.2c0,0,0,0,0,0c3.4,2,5.5,3.4,12.1,4.2V51C60.7,50.3,58,49.3,54.9,47.5z M49.8,48.1
				c-0.9-0.4-2.3-1.1-4.3-2.3c-3.8-2.4-4.9-4.4-12.1-6.1c5.7,0.2,8.1,1.6,11.6,3.9c2.4,1.6,5,2.8,6.5,3.4
				C51.4,47.2,50.4,47.8,49.8,48.1z"/>
			<g>
				<path fill="#66A4D0" d="M25.5,19.6l2.2,1.5c0.1,0.1,0.1,0.2,0,0.2l-5.3,0.9c-0.2,0-0.3-0.1-0.3-0.2l-1-5.2
					c0-0.2,0.1-0.2,0.2-0.1l2,1.4L25.5,19.6z"/>
			</g>
			<g>
				<g>
					<path fill="#231F20" d="M15,36.3l-1-1.7H9.2c-2.1,0-3.3-1-3.3-3.9v-5.4c0-2.8,1.2-3.9,3.3-3.9h7.5c2.1,0,3.3,1,3.3,3.9v5.4
						c0,2.8-1.2,3.9-3.3,3.9H16l1,1.7H15z M13.7,30.5l1,1.8c0.2-0.1,0.3-0.3,0.3-0.7v-7.1c0-0.6-0.3-0.8-1-0.8h-2.2
						c-0.7,0-1,0.2-1,0.8v7.1c0,0.6,0.3,0.8,1,0.8h1l-1.1-1.9H13.7z"/>
					<path fill="#231F20" d="M30.4,34.6l-0.1-1h0c-0.2,0.5-0.5,1-1.3,1H25c-2.3,0-3.2-1.4-3.2-3.5v-3.9c0-1.3-0.2-1.7-0.5-2.2h5.4
						v6.9c0,0.6,0.2,0.8,0.8,0.8h1.8c0.6,0,0.8-0.2,0.8-0.8v-4.7c0-1.3-0.2-1.7-0.5-2.2h5.4v7.4c0,1.3,0.2,1.7,0.5,2.2H30.4z"/>
					<path fill="#231F20" d="M41.3,30.8v0.9c0,0.7,0.3,1,1.1,1H47c0.9,0,1.4-0.1,2.2-0.4l-0.4,2.3h-9.7c-2.2,0-2.8-0.9-2.8-2.9v-3.8
						c0-2,0.6-2.9,2.8-2.9h7.4c2.2,0,2.8,0.9,2.8,2.9v2.9H41.3z M44.7,29v-1.3c0-0.6-0.2-0.8-0.7-0.8h-2c-0.5,0-0.7,0.2-0.7,0.8V29
						H44.7z"/>
					<path fill="#231F20" d="M60.1,27.9c2.2,0,2.6,1.1,2.6,2.3v1.9c0,1.2-0.7,2.5-2.9,2.5h-9l-0.4-2.3c0.9,0.4,1.3,0.6,3,0.6h4.1
						c0.5,0,0.6-0.1,0.6-0.5v-0.2c0-0.4-0.1-0.5-0.6-0.5h-4.2c-2.2,0-2.6-1.1-2.6-2.3v-1.9c0-1.5,1.2-2.5,3.1-2.5h8.3l0.4,2.4
						c-0.4-0.5-1.7-0.6-2.9-0.6h-3.8c-0.5,0-0.7,0.1-0.7,0.3v0.4c0,0.2,0.2,0.3,0.7,0.3H60.1z"/>
					<path fill="#231F20" d="M65.1,23l4.9-0.1V25h3.9v1.9h-3.9V32c0,0.6,0.1,0.8,1,0.8h1.7c0.9,0,1.5-0.3,1.7-0.4L74,34.6h-6.1
						c-1.5,0-2.9-0.6-2.9-3v-4.7H63V25h2.1V23z"/>
				</g>
				<g>
					<path fill="#66A4D0" d="M7.1,22.9c0,0,0.5-0.6,1.8-0.6c1.3,0,7,0,8,0c1.3,0,2.4,0.7,2.4,2.6c0,1.8,0,5.7,0,6.7
						c0,1-0.5,1.7-0.5,1.7s0.9-0.5,0.9-2.2c0-1.6,0-5.7,0-6.7c0-1.3-1.1-2.5-2.6-2.5c-1,0-6.6,0-7.8,0C7.9,21.9,7.1,22.9,7.1,22.9z"
						/>
					<path fill="#66A4D0" d="M10.6,23.6c0,0-0.2,0.4-0.2,1c0,0.6,0,6.3,0,6.7c0,0.6,0.2,1.5,1.7,1.5c0.5,0,1.2,0,1.2,0l0.2,0.4
						c0,0-1.2,0-1.7,0c-0.5,0-1.8-0.4-1.8-1.7c0-1.3,0-5.5,0-6.4C10,24.1,10.6,23.6,10.6,23.6z"/>
					<path fill="#66A4D0" d="M12.9,31h0.5l1.2,2c0,0,0.4-0.2,0.6-0.4c-0.1,0.4-1,0.8-1,0.8L12.9,31z"/>
					<polygon fill="#66A4D0" points="14.6,34.2 15.2,34.2 16,35.6 15.4,35.6 					"/>
					<path fill="#66A4D0" d="M22,25.4h4c0,0,0,6.2,0,6.6c0,0.8,0.5,1.3,1.2,1.3c0.6,0,1.5,0,1.8,0c0.3,0,0.5-0.1,0.7-0.2
						c-0.2,0.4-0.9,0.5-0.9,0.5c-0.3,0-1.5,0-1.8,0c-0.4,0-1.3-0.4-1.3-1.5c0-1,0-6.3,0-6.3h-3.6L22,25.4z"/>
					<path fill="#66A4D0" d="M30.1,32.7l-0.6,1.4c0,0,0.2-0.1,0.3-0.4c0.1-0.3,0.3-0.7,0.3-0.7L30.1,32.7z"/>
					<path fill="#66A4D0" d="M30.1,25.4h4c0,0,0,7.1,0,7.4c0,0.3,0.1,1.2,0.2,1.4c-0.1,0-0.4,0-0.4,0s-0.1-0.7-0.1-1.5
						c0-0.7,0-7,0-7h-3.6L30.1,25.4z"/>
					<path fill="#66A4D0" d="M37.4,26.2c0,0,0.7-0.8,2-0.8c1.4,0,5.7,0,6.7,0c1.9,0,2.6,0.9,2.6,2.2c0,1.2,0,2.8,0,2.8h-0.3
						c0,0,0-2,0-2.7c0-1.1-0.9-1.9-2.2-1.9c-1.1,0-5.8,0-6.8,0C38.4,25.7,37.9,25.9,37.4,26.2z"/>
					<path fill="#66A4D0" d="M44.6,29.7h-4.2c0,0,0-1.5,0-1.9c0-0.6,0.5-1,0.5-1s-0.2,0.4-0.2,1.1c0,0.5,0,1.4,0,1.4h3.8V29.7z"/>
					<path fill="#66A4D0" d="M40.4,30.7c0,0,0,1.4,0,1.6c0,0.4,0.3,1.3,1.5,1.3c1.3,0,4.7,0,5.1,0c0.4,0,1.1-0.2,1.1-0.2L48,34.3
						h0.3l0.1-1.2c0,0-0.7,0.2-1.4,0.2c-0.7,0-4.5,0-5.1,0c-0.8,0-1.2-0.5-1.2-1.1c0-0.6,0-1.5,0-1.5H40.4z"/>
					<path fill="#66A4D0" d="M61.6,25.4c0,0-6.2,0-7.7,0c-1.9,0-2.4,0.8-2.4,0.8s0.7-0.5,2.2-0.5c0.9,0,7.6,0,7.6,0l0.1,0.7l0.4,0.1
						L61.6,25.4z"/>
					<path fill="#66A4D0" d="M54.8,26.8c0,0-0.4,0.3-0.4,0.8c0,0.4,0.2,0.9,1,0.9c0.8,0,3.3,0,4.3,0c1,0,2,0.4,2,1.6
						c0,1.2,0,1.9,0,2.4c0,0.6-0.4,1.2-0.4,1.2s0.7-0.7,0.7-1.4c0-0.7,0-2.1,0-2.5c0-0.7-0.5-1.6-2.1-1.6c0,0-3.8,0-4.4,0
						C54.3,28.1,54.8,26.8,54.8,26.8z"/>
					<path fill="#66A4D0" d="M50.9,33l0.1,0.4c0,0,0.5,0.2,1.1,0.2c0.6,0,4.2,0,5,0c0.9,0,1-0.4,1-0.4s-0.3,0.1-0.9,0.1
						c0,0-4.3,0-4.8,0C51.7,33.3,50.9,33,50.9,33z"/>
					<polygon fill="#66A4D0" points="65.3,23.4 69.1,23.2 69.1,25.4 73.1,25.4 73.1,26.4 72.8,26.4 72.8,25.7 68.8,25.7 68.8,23.6 
						65.3,23.7 					"/>
					<rect x="63.7" y="25.4" fill="#66A4D0" width="1.2" height="0.3"/>
					<path fill="#66A4D0" d="M68.8,26.7c0,0,0,4.9,0,5.5c0,0.7,0.4,1.4,1.4,1.4c1,0,1.7,0,2.2,0c0.4,0,0.9-0.2,0.9-0.2l-0.1,0.8h0.3
						l0.2-1.1c0,0-0.4,0.2-1.1,0.2c-0.7,0-1.6,0-2.1,0c-0.7,0-1.2-0.3-1.2-1.2c0-0.8,0-5.4,0-5.4H68.8z"/>
				</g>
			</g>
			<line fill="none" stroke="#0067B1" stroke-width="0.1911" stroke-miterlimit="10" x1="11.5" y1="63.4" x2="68.7" y2="63.4"/>
			<g>
				<path fill="#0067B1" d="M11.4,56.7c0.2-0.1,0.4-0.1,0.6-0.1c0.3,0,0.6,0.1,0.8,0.3c0.2,0.2,0.2,0.5,0.2,0.9c0,0.6-0.2,1-0.5,1.2
					v0c0.3,0.1,0.4,0.4,0.5,1c0.1,0.6,0.1,1,0.2,1.2h-0.4c-0.1-0.1-0.1-0.6-0.2-1.1c-0.1-0.6-0.2-0.9-0.6-0.9h-0.2v2h-0.4V56.7z
					 M11.8,58.8h0.2c0.4,0,0.6-0.4,0.6-0.9c0-0.5-0.2-0.9-0.6-0.9c-0.1,0-0.2,0-0.2,0V58.8z"/>
				<path fill="#0067B1" d="M15,59.1h-0.9v1.7h1v0.5h-1.4v-4.6H15v0.5h-0.9v1.5H15V59.1z"/>
				<path fill="#0067B1" d="M15.7,60.6c0.1,0.1,0.3,0.2,0.5,0.2c0.4,0,0.6-0.3,0.6-0.8c0-0.4-0.2-0.7-0.5-1
					c-0.3-0.3-0.6-0.7-0.6-1.3c0-0.7,0.4-1.2,0.9-1.2c0.2,0,0.4,0.1,0.5,0.2L17,57.2c-0.1-0.1-0.2-0.2-0.4-0.2
					c-0.3,0-0.5,0.3-0.5,0.7c0,0.5,0.2,0.6,0.5,1c0.4,0.4,0.6,0.8,0.6,1.3c0,0.8-0.4,1.3-1,1.3c-0.2,0-0.5-0.1-0.6-0.2L15.7,60.6z"
					/>
				<path fill="#0067B1" d="M19.7,58.9c0,1.7-0.4,2.4-1,2.4c-0.6,0-0.9-0.8-0.9-2.4c0-1.5,0.4-2.4,1-2.4
					C19.3,56.6,19.7,57.4,19.7,58.9z M18.2,58.9c0,1,0.1,1.9,0.6,1.9c0.4,0,0.6-1,0.6-1.9c0-0.9-0.1-1.9-0.6-1.9
					C18.3,57,18.2,58,18.2,58.9z"/>
				<path fill="#0067B1" d="M20.8,56.6v3.1c0,0.8,0.2,1.1,0.5,1.1c0.3,0,0.5-0.3,0.5-1.1v-3.1h0.4v3c0,1.2-0.4,1.7-0.9,1.7
					c-0.5,0-0.8-0.5-0.8-1.6v-3.1H20.8z"/>
				<path fill="#0067B1" d="M23,56.7c0.2-0.1,0.4-0.1,0.6-0.1c0.3,0,0.6,0.1,0.8,0.3c0.2,0.2,0.2,0.5,0.2,0.9c0,0.6-0.2,1-0.5,1.2v0
					c0.3,0.1,0.4,0.4,0.5,1c0.1,0.6,0.1,1,0.2,1.2h-0.4c-0.1-0.1-0.1-0.6-0.2-1.1c-0.1-0.6-0.2-0.9-0.6-0.9h-0.2v2H23V56.7z
					 M23.4,58.8h0.2c0.4,0,0.6-0.4,0.6-0.9c0-0.5-0.2-0.9-0.6-0.9c-0.1,0-0.2,0-0.2,0V58.8z"/>
				<path fill="#0067B1" d="M26.9,61.2c-0.1,0.1-0.3,0.1-0.5,0.1c-0.7,0-1.1-0.7-1.1-2.3c0-1.8,0.7-2.4,1.2-2.4
					c0.2,0,0.4,0.1,0.4,0.1l-0.1,0.4c-0.1,0-0.2-0.1-0.3-0.1c-0.4,0-0.8,0.5-0.8,1.9c0,1.4,0.4,1.9,0.8,1.9c0.1,0,0.3,0,0.4-0.1
					L26.9,61.2z"/>
				<path fill="#0067B1" d="M28.8,59.1h-0.9v1.7h1v0.5h-1.4v-4.6h1.3v0.5h-0.9v1.5h0.9V59.1z"/>
				<path fill="#0067B1" d="M32.7,59.3c0-0.6-0.1-1.3,0-1.8h0c-0.1,0.5-0.2,1.1-0.3,1.6L32,61.2h-0.2l-0.4-2.1
					c-0.1-0.6-0.2-1.2-0.3-1.7h0c0,0.5,0,1.2,0,1.9l-0.1,2h-0.4l0.2-4.6h0.4l0.4,2.1c0.1,0.6,0.2,1.1,0.3,1.6h0
					c0.1-0.5,0.1-1,0.3-1.6l0.4-2.1H33l0.2,4.6h-0.4L32.7,59.3z"/>
				<path fill="#0067B1" d="M34.4,59.9l-0.2,1.4h-0.4l0.8-4.6H35l0.8,4.6h-0.4l-0.2-1.4H34.4z M35.1,59.4l-0.2-1.2
					c-0.1-0.3-0.1-0.7-0.1-1.1h0c0,0.4-0.1,0.8-0.1,1.1l-0.2,1.2H35.1z"/>
				<path fill="#0067B1" d="M36.4,61.3v-4.6h0.4l0.6,2.2c0.1,0.5,0.3,1.1,0.4,1.6h0c0-0.7,0-1.3,0-2.1v-1.7h0.3v4.6h-0.4L37.2,59
					c-0.1-0.5-0.3-1-0.4-1.6h0c0,0.6,0,1.2,0,2.2v1.6H36.4z"/>
				<path fill="#0067B1" d="M39.5,59.9l-0.2,1.4h-0.4l0.8-4.6h0.4l0.8,4.6h-0.4l-0.2-1.4H39.5z M40.2,59.4L40,58.3
					c-0.1-0.3-0.1-0.7-0.1-1.1h0c0,0.4-0.1,0.8-0.1,1.1l-0.2,1.2H40.2z"/>
				<path fill="#0067B1" d="M43.1,61.1c-0.1,0.1-0.4,0.2-0.6,0.2c-0.3,0-0.6-0.1-0.8-0.5c-0.2-0.4-0.4-1-0.4-1.8
					c0-1.8,0.7-2.4,1.3-2.4c0.2,0,0.4,0.1,0.5,0.1L43,57.2c-0.1-0.1-0.2-0.1-0.4-0.1c-0.4,0-0.9,0.5-0.9,1.9c0,1.4,0.4,1.9,0.8,1.9
					c0.1,0,0.2,0,0.2-0.1v-1.5h-0.4v-0.4h0.8V61.1z"/>
				<path fill="#0067B1" d="M45.2,59.1h-0.9v1.7h1v0.5h-1.4v-4.6h1.3v0.5h-0.9v1.5h0.9V59.1z"/>
				<path fill="#0067B1" d="M48.1,59.3c0-0.6-0.1-1.3,0-1.8h0c-0.1,0.5-0.2,1.1-0.3,1.6l-0.4,2.2h-0.2l-0.4-2.1
					c-0.1-0.6-0.2-1.2-0.3-1.7h0c0,0.5,0,1.2,0,1.9l-0.1,2h-0.4l0.2-4.6h0.4l0.4,2.1c0.1,0.6,0.2,1.1,0.3,1.6h0
					c0.1-0.5,0.1-1,0.3-1.6l0.4-2.1h0.4l0.2,4.6h-0.4L48.1,59.3z"/>
				<path fill="#0067B1" d="M50.6,59.1h-0.9v1.7h1v0.5h-1.4v-4.6h1.3v0.5h-0.9v1.5h0.9V59.1z"/>
				<path fill="#0067B1" d="M51.4,61.3v-4.6h0.4l0.6,2.2c0.1,0.5,0.3,1.1,0.4,1.6h0c0-0.7,0-1.3,0-2.1v-1.7h0.4v4.6h-0.4L52.1,59
					c-0.1-0.5-0.3-1-0.4-1.6h0c0,0.6,0,1.2,0,2.2v1.6H51.4z"/>
				<path fill="#0067B1" d="M54.4,57.1h-0.6v-0.5h1.6v0.5h-0.6v4.2h-0.4V57.1z"/>
				<path fill="#0067B1" d="M58.8,61.1c-0.1,0.1-0.4,0.2-0.6,0.2c-0.3,0-0.6-0.1-0.8-0.5c-0.2-0.4-0.4-1-0.4-1.8
					c0-1.8,0.7-2.4,1.3-2.4c0.2,0,0.4,0.1,0.5,0.1l-0.1,0.5c-0.1-0.1-0.2-0.1-0.4-0.1c-0.4,0-0.9,0.5-0.9,1.9c0,1.4,0.4,1.9,0.8,1.9
					c0.1,0,0.2,0,0.2-0.1v-1.5H58v-0.4h0.8V61.1z"/>
				<path fill="#0067B1" d="M59.6,56.7c0.2-0.1,0.4-0.1,0.6-0.1c0.3,0,0.6,0.1,0.8,0.3c0.2,0.2,0.2,0.5,0.2,0.9c0,0.6-0.2,1-0.5,1.2
					v0c0.3,0.1,0.4,0.4,0.5,1c0.1,0.6,0.1,1,0.2,1.2h-0.4c-0.1-0.1-0.1-0.6-0.2-1.1c-0.1-0.6-0.2-0.9-0.6-0.9H60v2h-0.4V56.7z
					 M60,58.8h0.2c0.4,0,0.6-0.4,0.6-0.9c0-0.5-0.2-0.9-0.6-0.9c-0.1,0-0.2,0-0.2,0V58.8z"/>
				<path fill="#0067B1" d="M63.8,58.9c0,1.7-0.4,2.4-1,2.4c-0.6,0-0.9-0.8-0.9-2.4c0-1.5,0.4-2.4,1-2.4
					C63.4,56.6,63.8,57.4,63.8,58.9z M62.3,58.9c0,1,0.1,1.9,0.6,1.9c0.4,0,0.6-1,0.6-1.9c0-0.9-0.1-1.9-0.6-1.9
					C62.4,57,62.3,58,62.3,58.9z"/>
				<path fill="#0067B1" d="M64.9,56.6v3.1c0,0.8,0.2,1.1,0.5,1.1c0.3,0,0.5-0.3,0.5-1.1v-3.1h0.4v3c0,1.2-0.4,1.7-0.9,1.7
					c-0.5,0-0.8-0.5-0.8-1.6v-3.1H64.9z"/>
				<path fill="#0067B1" d="M67.1,56.7c0.2-0.1,0.3-0.1,0.6-0.1c0.3,0,0.6,0.1,0.8,0.3c0.2,0.2,0.3,0.6,0.3,1c0,0.4-0.1,0.7-0.2,0.9
					c-0.2,0.3-0.5,0.5-0.8,0.5c-0.1,0-0.1,0-0.2,0v1.9h-0.4V56.7z M67.5,58.9c0,0,0.1,0,0.2,0c0.4,0,0.6-0.3,0.6-1
					c0-0.5-0.1-0.9-0.6-0.9c-0.1,0-0.2,0-0.2,0V58.9z"/>
			</g>
		</g>
		<g>
			<path fill="#231F20" d="M73.7,23.4c-0.2,0.2-0.4,0.3-0.6,0.3c-0.3,0-0.5-0.1-0.6-0.3c-0.2-0.2-0.3-0.4-0.3-0.6
				c0-0.3,0.1-0.5,0.3-0.7c0.2-0.2,0.4-0.2,0.6-0.2c0.3,0,0.5,0.1,0.6,0.3s0.3,0.4,0.3,0.6C74,23,73.9,23.2,73.7,23.4z M72.5,22.2
				c-0.1,0.1-0.2,0.3-0.2,0.5c0,0.2,0.1,0.4,0.2,0.5c0.1,0.1,0.3,0.2,0.5,0.2c0.2,0,0.4-0.1,0.5-0.2c0.1-0.1,0.2-0.3,0.2-0.5
				c0-0.2-0.1-0.4-0.2-0.5c-0.1-0.2-0.3-0.2-0.5-0.2C72.9,22,72.7,22.1,72.5,22.2z M72.7,23.3v-1c0.1,0,0.2,0,0.3,0
				c0.1,0,0.2,0,0.2,0c0.1,0,0.1,0,0.2,0.1c0.1,0,0.1,0.1,0.1,0.2c0,0.1,0,0.1-0.1,0.2c0,0-0.1,0.1-0.2,0.1c0.1,0,0.1,0,0.1,0.1
				c0.1,0,0.1,0.1,0.1,0.2v0.1c0,0,0,0,0,0c0,0,0,0,0,0l0,0h-0.3c0,0,0-0.1,0-0.1c0-0.1,0-0.1,0-0.1c0,0,0-0.1-0.1-0.1
				c0,0,0,0-0.1,0l-0.1,0h-0.1v0.4H72.7z M73.2,22.5c0,0-0.1,0-0.2,0h-0.1v0.3H73c0.1,0,0.1,0,0.1,0c0,0,0.1-0.1,0.1-0.1
				C73.2,22.5,73.2,22.5,73.2,22.5z"/>
		</g>
	</g>
	<g>
		<path fill="#0067B1" d="M12,67.5c0,0.1,0.1,0.2,0.1,0.3c0.1,0.1,0.3,0.2,0.5,0.2c0.1,0,0.3,0,0.4,0c0.2-0.1,0.3-0.2,0.3-0.3
			c0-0.1,0-0.2-0.1-0.2c-0.1-0.1-0.2-0.1-0.4-0.1l-0.3-0.1c-0.3-0.1-0.5-0.1-0.6-0.2c-0.2-0.1-0.3-0.3-0.3-0.6
			c0-0.3,0.1-0.5,0.3-0.6c0.2-0.2,0.5-0.3,0.8-0.3c0.3,0,0.6,0.1,0.8,0.2c0.2,0.2,0.3,0.4,0.3,0.7h-0.6c0-0.2-0.1-0.3-0.2-0.4
			c-0.1,0-0.2-0.1-0.4-0.1c-0.2,0-0.3,0-0.4,0.1c-0.1,0.1-0.1,0.1-0.1,0.3c0,0.1,0,0.2,0.1,0.2c0.1,0,0.2,0.1,0.4,0.1l0.5,0.1
			c0.2,0.1,0.4,0.1,0.5,0.2c0.2,0.1,0.3,0.3,0.3,0.6c0,0.3-0.1,0.5-0.3,0.7s-0.5,0.3-0.9,0.3c-0.4,0-0.7-0.1-0.9-0.3
			c-0.2-0.2-0.3-0.4-0.3-0.7H12z"/>
		<path fill="#0067B1" d="M14.2,65.5h0.6v1.8c0,0.2,0,0.3,0.1,0.4c0.1,0.2,0.2,0.2,0.5,0.2c0.2,0,0.4-0.1,0.5-0.2
			c0-0.1,0.1-0.2,0.1-0.4v-1.8h0.6v1.8c0,0.3,0,0.5-0.1,0.7c-0.2,0.3-0.5,0.5-1,0.5c-0.5,0-0.8-0.2-1-0.5c-0.1-0.2-0.1-0.4-0.1-0.7
			V65.5z"/>
		<path fill="#0067B1" d="M17.5,67.5c0,0.1,0.1,0.2,0.1,0.3c0.1,0.1,0.3,0.2,0.5,0.2c0.1,0,0.3,0,0.4,0c0.2-0.1,0.3-0.2,0.3-0.3
			c0-0.1,0-0.2-0.1-0.2c-0.1-0.1-0.2-0.1-0.4-0.1l-0.3-0.1c-0.3-0.1-0.5-0.1-0.6-0.2c-0.2-0.1-0.3-0.3-0.3-0.6
			c0-0.3,0.1-0.5,0.3-0.6c0.2-0.2,0.5-0.3,0.8-0.3c0.3,0,0.6,0.1,0.8,0.2c0.2,0.2,0.3,0.4,0.3,0.7h-0.6c0-0.2-0.1-0.3-0.2-0.4
			c-0.1,0-0.2-0.1-0.4-0.1c-0.2,0-0.3,0-0.4,0.1c-0.1,0.1-0.1,0.1-0.1,0.3c0,0.1,0,0.2,0.1,0.2c0.1,0,0.2,0.1,0.4,0.1l0.5,0.1
			c0.2,0.1,0.4,0.1,0.5,0.2c0.2,0.1,0.3,0.3,0.3,0.6c0,0.3-0.1,0.5-0.3,0.7s-0.5,0.3-0.9,0.3c-0.4,0-0.7-0.1-0.9-0.3
			c-0.2-0.2-0.3-0.4-0.3-0.7H17.5z"/>
		<path fill="#0067B1" d="M21.9,65.5V66H21v2.4h-0.6V66h-0.9v-0.5H21.9z"/>
		<path fill="#0067B1" d="M22.7,65.5h0.7l1,2.9h-0.7l-0.2-0.6h-1.1l-0.2,0.6h-0.6L22.7,65.5z M22.7,67.3h0.7l-0.4-1.1L22.7,67.3z"/>
		<path fill="#0067B1" d="M25.3,68.4h-0.6v-2.9h0.6V68.4z"/>
		<path fill="#0067B1" d="M25.9,65.5h0.6l1.1,2v-2h0.6v2.9h-0.6l-1.2-2v2h-0.6V65.5z"/>
		<path fill="#0067B1" d="M29.6,65.5h0.7l1,2.9h-0.7l-0.2-0.6h-1.1l-0.2,0.6h-0.6L29.6,65.5z M29.6,67.3h0.7l-0.4-1.1L29.6,67.3z"/>
		<path fill="#0067B1" d="M33.8,65.8c0.1,0.1,0.1,0.3,0.1,0.4c0,0.2,0,0.3-0.1,0.4c0,0.1-0.1,0.1-0.2,0.2c0.1,0.1,0.3,0.1,0.3,0.3
			s0.1,0.3,0.1,0.4c0,0.2,0,0.3-0.1,0.5c-0.1,0.1-0.1,0.2-0.2,0.2c-0.1,0.1-0.2,0.1-0.3,0.1c-0.1,0-0.3,0-0.4,0h-1.3v-2.9h1.4
			C33.4,65.5,33.7,65.6,33.8,65.8z M32.3,66v0.6H33c0.1,0,0.2,0,0.3-0.1c0.1,0,0.1-0.1,0.1-0.3c0-0.1-0.1-0.2-0.2-0.3
			c-0.1,0-0.2,0-0.3,0H32.3z M32.3,67.1v0.8H33c0.1,0,0.2,0,0.3-0.1c0.1-0.1,0.2-0.2,0.2-0.4c0-0.1-0.1-0.3-0.2-0.3
			c-0.1,0-0.2,0-0.3,0H32.3z"/>
		<path fill="#0067B1" d="M35.1,68.4h-0.6v-2.9h0.6V68.4z"/>
		<path fill="#0067B1" d="M35.7,65.5h0.6v2.4h1.4v0.5h-2V65.5z"/>
		<path fill="#0067B1" d="M38.7,68.4h-0.6v-2.9h0.6V68.4z"/>
		<path fill="#0067B1" d="M41.3,65.5V66h-0.9v2.4h-0.6V66H39v-0.5H41.3z"/>
		<path fill="#0067B1" d="M43.3,65.5H44l-1,1.8v1.1h-0.6v-1.1l-1-1.8h0.7l0.6,1.3L43.3,65.5z"/>
		<path fill="#0067B1" d="M43.8,67.8h0.6v0.6h-0.6V67.8z"/>
		<path fill="#0067B1" d="M47.8,65.6c0.2,0.1,0.4,0.2,0.5,0.4c0.1,0.1,0.2,0.3,0.2,0.5s0.1,0.3,0.1,0.5c0,0.4-0.1,0.7-0.2,1
			c-0.2,0.4-0.5,0.5-1,0.5h-1.2v-2.9h1.2C47.5,65.5,47.7,65.6,47.8,65.6z M46.7,66v1.9h0.6c0.3,0,0.5-0.1,0.6-0.4
			c0.1-0.2,0.1-0.3,0.1-0.5c0-0.3,0-0.5-0.1-0.7c-0.1-0.2-0.3-0.2-0.5-0.2H46.7z"/>
		<path fill="#0067B1" d="M51.1,66h-1.5v0.6H51v0.5h-1.4v0.7h1.6v0.5H49v-2.9h2.1V66z"/>
		<path fill="#0067B1" d="M51.6,65.5h0.6v2.4h1.4v0.5h-2V65.5z"/>
		<path fill="#0067B1" d="M54.6,68.4H54v-2.9h0.6V68.4z"/>
		<path fill="#0067B1" d="M56.9,65.5h0.6l-1,2.9H56l-1-2.9h0.6l0.6,2.2L56.9,65.5z"/>
		<path fill="#0067B1" d="M60,66h-1.5v0.6h1.4v0.5h-1.4v0.7h1.6v0.5h-2.2v-2.9H60V66z"/>
		<path fill="#0067B1" d="M62.4,65.6c0.1,0,0.2,0.1,0.3,0.2c0.1,0.1,0.1,0.2,0.1,0.2c0,0.1,0.1,0.2,0.1,0.3c0,0.1,0,0.3-0.1,0.4
			c-0.1,0.1-0.2,0.2-0.3,0.3c0.1,0.1,0.2,0.1,0.3,0.2c0.1,0.1,0.1,0.2,0.1,0.4v0.2c0,0.1,0,0.2,0,0.3c0,0.1,0.1,0.1,0.1,0.2v0.1
			h-0.7c0-0.1,0-0.1,0-0.2c0-0.1,0-0.2,0-0.2l0-0.3c0-0.2,0-0.3-0.1-0.4c-0.1-0.1-0.2-0.1-0.3-0.1h-0.6v1.1h-0.6v-2.9h1.4
			C62.1,65.5,62.3,65.6,62.4,65.6z M61.1,66v0.8h0.6c0.1,0,0.2,0,0.3,0c0.1-0.1,0.2-0.2,0.2-0.3c0-0.2-0.1-0.3-0.2-0.4
			c-0.1,0-0.2-0.1-0.3-0.1H61.1z"/>
		<path fill="#0067B1" d="M65.5,66H64v0.6h1.4v0.5H64v0.7h1.6v0.5h-2.2v-2.9h2.1V66z"/>
		<path fill="#0067B1" d="M67.8,65.6c0.2,0.1,0.4,0.2,0.5,0.4c0.1,0.1,0.2,0.3,0.2,0.5c0,0.2,0.1,0.3,0.1,0.5c0,0.4-0.1,0.7-0.2,1
			c-0.2,0.4-0.5,0.5-1,0.5h-1.2v-2.9h1.2C67.5,65.5,67.6,65.6,67.8,65.6z M66.7,66v1.9h0.6c0.3,0,0.5-0.1,0.6-0.4
			c0.1-0.2,0.1-0.3,0.1-0.5c0-0.3,0-0.5-0.1-0.7c-0.1-0.2-0.3-0.2-0.5-0.2H66.7z"/>
		<path fill="#0067B1" d="M68.9,67.8h0.6v0.6h-0.6V67.8z"/>
	</g>
	<g>
		<path fill="#231F20" d="M69.1,65h-0.3v0.7h-0.1V65h-0.3V65L69.1,65L69.1,65z M70.1,65.8H70v-0.7h0l-0.3,0.7h-0.1l-0.3-0.7h0v0.7
			h-0.1V65h0.2l0.2,0.6h0L70,65h0.2V65.8z"/>
	</g>
</g>
</svg>
